<svg viewBox="0 0 50 50" xmlns="http://www.w3.org/2000/svg" xml:space="preserve" style="fill-rule:evenodd;clip-rule:evenodd;stroke-linejoin:round;stroke-miterlimit:2"><path style="fill:none" d="M0 0h24v25H0z" transform="scale(2.08333 2)"/><path d="M26.621 1.873a2.998 2.998 0 0 0-4.242 0L1.873 22.379a2.998 2.998 0 0 0 0 4.242l20.506 20.506a2.998 2.998 0 0 0 4.242 0l20.506-20.506a2.998 2.998 0 0 0 0-4.242L26.621 1.873Zm3.546 29.599c.656.352 1.416.528 2.28.528h4.2v-2.712h-3.984c-.48 0-.864-.136-1.152-.408-.272-.288-.408-.672-.408-1.152V14.48h-7.224v2.712h4.224v10.536c0 .848.184 1.6.552 2.256.368.64.872 1.136 1.512 1.488ZM12.848 18.8V32h3v-8.256c0-.832.208-1.472.624-1.92.432-.448 1.016-.672 1.752-.672.752 0 1.336.216 1.752.648.416.432.624 1.048.624 1.848V32h3v-8.664c0-1.456-.392-2.616-1.176-3.48-.768-.864-1.8-1.296-3.096-1.296-1.104 0-1.976.304-2.616.912-.484.472-.78 1.088-.889 1.848h-.047V18.8h-2.928Z" style="fill:#7aa2f7" transform="matrix(1 0 0 1 .126 .126)"/></svg>