<svg version="1.1" id="mountains" xmlns="http://www.w3.org/2000/svg" x="0" y="0" viewBox="0 0 1920 160" xml:space="preserve"><path d="M-3.108 75.52s5.953.369 7.628-.369 2.419-2.955 4.093-3.14c12.497-3.083 13.075 4.477 32.93 4.064 33.754-3.345 56.346-5.615 87.999-4.618 4.466.554 23.07 6.65 35.722 5.172 30.526-2.341 50.643-4.247 75.535-8.868 16.827-.585 33.146-4.835 47.441-9.79 10.703-6.571 22.517-1.174 36.466-6.093 7.256-3.326 5.953-6.097 8.186-7.39 2.233-1.293 12.279-7.204 15.07-9.051 2.791-1.847 3.163-3.51 5.581-4.064 2.419-.554 7.256-.739 8.744-1.108 1.488-.369 4.279-.924 5.581-.185 1.302.739 3.721 2.217 5.023 1.478 1.302-.739 10.605-1.108 13.767-.554s11.163 4.248 12.465 5.541c1.302 1.293 1.488 3.51 5.395 1.847 7.676-4.078 10.665 1.216 16.372-1.477 2.232-1.109 11.907-6.466 21.767-.555 13.236 7.076 3.027 18.751 8.371 18.103 5.003-.225 10.482 8.631 9.116 13.115 3.387 4.051 2.947 12.288 7.071 16.254 7.868 6.976 30.577 4.986 39.07 4.247 10.016-1.929 14.047-3.143 23.999 1.48 2.047-.001 4.465 4.616 7.442 5.171 14.85 3.538 49.354 6.293 65.116-.187 7.831-4.258 16.986-7.12 24.559-5.908 11.432-1.47 26.875-3.748 38.511-1.294 2.233.924 9.116 6.096 10.791 6.096 1.674 0 6.326.554 7.814 1.662 4.699 2.918 13.811.864 18.791 2.402 9.7 1.525 28.655-1.508 39.255-3.88 8.845-2.73 19.438-7.176 27.535-5.54 1.488.368 2.791 3.324 4.279 3.693 2.842.319 16.435-3.654 19.535-.739 2.047-1.108 5.953-.554 10.791-1.108 7.416-.899 8.939 2.496 13.209 2.032.558-.185 5.023.554 8.372.184 7.215-.018 9.748 1.953 16.395 2.908 2.093.624 4.884 4.365 5.233 4.573.349.208 4.953 2.009 5.651 2.217.698.208 2.651 3.463 3.698 3.671s22.884-.485 24.558.346 2.581 3.256 2.791 3.602c.209.346 2.512-2.009 2.791-1.593.279.416 2.721 4.087 3.628 4.641.907.554 11.721 5.126 14.14 4.572 2.419-.554 3.535-2.586 5.581-2.401 5.05.818 7.744 6.863 13.953 7.573 3.349.37 19.535-.738 22.698-1.293 12.068-2.008 18.787 4.434 34.419.185 8.558-2.956 18.419-6.096 24.186-6.281 5.767-.185 21.767-5.541 24.93-5.911 3.163-.369 22.511-4.248 26.977-5.726 20.286-5.891 41.669-7.208 61.209-12.561 6.822-2.113 12.283-1.82 18.605-5.541 2.046-1.848 8.93-7.205 15.628-9.791s50.604-16.994 55.256-17.917c10.898-2.797 27.696-7.306 34.232-14.223 3.019-1.596 12.851-3.281 16.186-5.726 5.938-1.793 30.47-5.792 37.023-7.758 3.163-.923 8.373-4.802 10.605-5.726 4.92-1.676 15.208-2.009 19.349-5.358 10.548-7.193 32-5.82 43.349-1.845 3.901 1.043 6.872 1.262 8.186 3.323 5.7-1.419 10.114-6.724 18.604-3.51 5.21 2.217 22.698 11.638 28.652 13.485 18.776 5.62 39.38 12.928 55.814 18.103 7.598-1.211 14.62 4.425 21.767 7.019 2.791.738 10.977 4.802 13.768 5.91 14.318 5.476 36.12 8.877 51.349 11.269 6.864 2.868 23.079 8.265 28.838 12.558 2.875 6.574 15.431 6.251 20.279 5.911 11.724.353.579-6.339 8.372-15.7 1.488-1.293 10.232-2.217 11.72-3.879 7.219-11.265 10.136-14.74 21.21-21.241 5.776-5.406 12.701-12.844 23.812-16.072 6.885-.922 9.489.74 10.791.371 1.302-.369 3.349-3.14 7.628-4.064 4.279-.924 7.628-1.478 9.488-3.51 7.771-8.374 19.117-15.58 32.557-18.288 24.696-.292 45.729-1.015 68.838.739 19.437 1.785 60.493 4.03 79.069 7.206 2.791.184 6.326-3.511 10.233-3.695 3.907-.185 20.651.924 20.651.924v145.272H0L-3.108 75.52z" fill="#18171a"/></svg>