<svg xmlns="http://www.w3.org/2000/svg" xml:space="preserve" class="intro-svg rainbow-text opacity-25" style="fill-rule:evenodd;clip-rule:evenodd;stroke-linejoin:round;stroke-miterlimit:2;fill:currentColor;" viewBox="0 0 553 446">
  <defs>
    <style type="text/css">
      .no-preference #intro-svg-root { filter: url(#displacementFilter) }
    </style>
    <filter id="displacementFilter">
      <feTurbulence type="turbulence" baseFrequency="0.01" numOctaves="2" result="turbulence">
        <animate attributeName="baseFrequency" values="0.00;0.005;0.00;" dur="15s" repeatCount="indefinite" />
      </feTurbulence>
      <feDisplacementMap in2="turbulence" in="SourceGraphic" scale="50" xChannelSelector="R" yChannelSelector="G" />
    </filter>
  </defs>
<g id="intro-svg-root" transform="scale(.55208 .4452)">
<g id="Artboard11" transform="matrix(1.81132 0 0 2.2462 -385.717 -653.638)">
<path id="Base" class="float" d="M453.835 399.662v46.536h34.99v34.99h-34.99v-34.99h-49.328v43.016h-.556v.129h-46.324v-.129h-.055v-33.218h-49.834v58.217h44.089v48.831l.134 14.044h-.134v.184h-35.085v42.971h43.672v-27.885h50.227l2.87-.029v-33.755h-30.149l-.01-30.168h30.164v30.164h33.804v33.804h-33.789l-.014 1.152v36.094h38.636v48.911l.02 1.48h39.326v31.981l32.393 17.556c109.487-49.756 186.552-122.026 224.463-221.475C810.5 294.29 583.313 262.469 523.918 365.636c-18.21-26.315-41.774-42.887-73.572-49.735v45.007h37.514v38.749l-34.028.005h.003Z"/>
<path id="bottomsmall2" class="float-most delay-900" d="M418.416 680.019h33.76v33.755h-33.76z"/>
<path id="bottomsmall1" class="float-more delay-1000" d="M379.756 629.629h33.755v33.755h-33.755z" />
<path id="leftmid2" class="float-more delay-800" d="M285.209 534.277h29.847v29.831h-29.847z"/>
<path id="leftmid1" class="float-more delay-700"d="M226.462 492.039h29.836v29.831l-29.836-.005v-29.826Z" />
<path id="topleft3" class="float-most delay-600" d="M262.316 447.17h29.836v29.836h-29.836z" />
<path id="topleft2" class="float-more delay-500" d="M324.759 403.122h29.85v29.836h-29.846v-29.836h-.004Z" />
<path id="topleft1" class="float-more delay-400" d="M262.207 374.924h29.836v29.836h-29.836z" />
<path id="topmidlarge" class="float delay-400" d="M376.237 376.678h51.245v51.249h-51.245z" />
<path id="topmid2" class="float-most delay-900" d="M329.373 342.204h29.847v29.831h-29.847z" />
<path id="topmid1" class="float-most delay-1000" d="M388.752 308.152h29.831v29.836h-29.831z" />
</g>
</g>
</svg>
