<svg xmlns="http://www.w3.org/2000/svg" viewBox="0 0 54 18" style="enable-background:new 0 0 54 18" xml:space="preserve"><path d="M51.438 7.663c-1.456-1.678-3.999-2.979-7.159-3.661-2.791-.605-5.715-.705-8.542-.803l-17.228-.592a.516.516 0 0 0-.517.482.501.501 0 0 0 .482.518l17.227.592c2.784.096 5.662.194 8.366.779 2.95.638 5.299 1.824 6.614 3.341 1.46 1.681 1.515 3.845.134 5.264-1.645 1.691-4.813 2.215-7.391 2.482-6.43.664-13.389.575-21.901-.287-3.524-.356-7.246-.841-10.586-1.966-3.604-1.214-6.324-3.076-7.662-5.243-.654-1.062-.878-2.258-.611-3.283.221-.85.755-1.517 1.588-1.982.843-.471 1.941-.695 2.993-.886 7.732-1.4 15.566-.998 22.211-.42a.5.5 0 1 0 .087-.996c-6.71-.583-14.628-.987-22.476.432-1.135.205-2.325.451-3.303.997-1.065.595-1.781 1.496-2.068 2.604-.334 1.286-.068 2.766.73 4.06 1.459 2.365 4.37 4.377 8.193 5.665 3.435 1.157 7.223 1.651 10.805 2.013 4.817.488 9.144.73 13.162.73a86.21 86.21 0 0 0 8.943-.443c2.745-.284 6.135-.857 8.004-2.779 1.758-1.807 1.719-4.528-.095-6.618z" style="fill:#e31e30"/></svg>