<svg version="1.1" id="Layer_1" xmlns="http://www.w3.org/2000/svg" xmlns:xlink="http://www.w3.org/1999/xlink" x="0" y="0" viewBox="0 0 154 74" style="enable-background:new 0 0 154 74" xml:space="preserve"><style>.st0{clip-path:url(#SVGID_00000026866540012273948530000017739984591489188240_);fill:none;stroke:#e31e30}</style><defs><path id="SVGID_1_" d="M2.78 3.497h147.027v67.65H2.78z"/></defs><clipPath id="SVGID_00000057846141813599406930000009571500760093769658_"><use xlink:href="#SVGID_1_" style="overflow:visible"/></clipPath><path style="clip-path:url(#SVGID_00000057846141813599406930000009571500760093769658_);fill:none;stroke:#e31e30" d="M3.279 30.711c.121-2.074 3.382-3.358 4.754-4.248 8.891-5.768 17.134-11.593 27.305-15.19 18.698-6.612 41.029-8.607 60.627-6.435 18.409 2.039 34.046 9.041 45.775 23.575 4.183 5.182 8.736 11.501 7.295 18.556-1.274 6.24-6.542 10.225-11.994 12.808-11.15 5.282-23.761 8.317-35.959 9.818-3.567.44-7.152.739-10.743.906-3.445.16-6.897.191-10.344.08-14.393-.466-29.228-3.351-42.916-7.757-12.892-4.149-24.866-9.404-17.558-25.235 2.188-4.74 5.436-8.875 9.182-12.483 2.197-2.116 4.556-4.06 6.976-5.915"/></svg>