<?xml version="1.0" encoding="utf-8"?>
<!-- Generator: Adobe Illustrator 14.0.0, SVG Export Plug-In . SVG Version: 6.00 Build 43363)  -->
<!DOCTYPE svg PUBLIC "-//W3C//DTD SVG 1.1//EN" "http://www.w3.org/Graphics/SVG/1.1/DTD/svg11.dtd">
<svg version="1.1"
	 id="Layer_1" xmlns:dc="http://purl.org/dc/elements/1.1/" xmlns:rdf="http://www.w3.org/1999/02/22-rdf-syntax-ns#" xmlns:cc="http://creativecommons.org/ns#"
	 xmlns="http://www.w3.org/2000/svg" xmlns:xlink="http://www.w3.org/1999/xlink" x="0px" y="0px" width="222px" height="39.469px"
	 viewBox="15.41 2.74 222 39.469" enable-background="new 15.41 2.74 222 39.469" xml:space="preserve">
<g>
	<path d="M78.089,15.921c-2.894,0-4.814,2.332-4.814,6.52c0,4.189,2.009,6.578,4.906,6.578c2.894,0,4.81-2.33,4.81-6.52
		C82.991,18.312,80.981,15.921,78.089,15.921 M78.118,33.119c-5.404,0-9.096-3.951-9.096-10.62c0-6.662,3.75-10.678,9.16-10.678
		c5.371,0,9.066,3.952,9.066,10.619C87.248,29.107,83.493,33.119,78.118,33.119"/>
	<path d="M100.089,16.157h-4.755v5.312h4.815c1.918,0,2.953-0.886,2.953-2.689C103.101,16.982,101.919,16.157,100.089,16.157
		 M99.883,25.481h-4.55v7.313h-4.134V12.146h9.037c3.897,0,7.118,2.155,7.118,6.549C107.352,23.477,104.164,25.481,99.883,25.481"/>
	<polygon points="111.632,32.793 111.632,12.146 125.983,12.146 125.983,16.188 115.763,16.188 115.763,19.757 121.699,19.757 
		121.699,23.767 115.763,23.767 115.763,28.751 126.426,28.751 126.426,32.793 	"/>
	<path d="M144.229,32.793l-7.593-11.266c-0.503-0.765-1.18-1.799-1.445-2.328c0,0.767,0.057,3.362,0.057,4.515v9.08h-4.072V12.146
		h3.953l7.326,10.916c0.503,0.766,1.181,1.803,1.445,2.33c0-0.771-0.056-3.362-0.056-4.513v-8.735h4.072v20.647L144.229,32.793
		L144.229,32.793z"/>
	<path d="M159.939,33.119c-2.802,0-5.313-1.213-6.936-2.861l1.533-1.711c1.565,1.504,3.369,2.479,5.494,2.479
		c2.748,0,4.462-1.355,4.462-3.539c0-1.92-1.152-3.009-4.934-4.365c-4.458-1.594-5.969-3.039-5.969-6.019
		c0-3.308,2.599-5.281,6.469-5.281c2.779,0,4.551,0.824,6.294,2.215l-1.477,1.799c-1.506-1.241-2.897-1.922-4.965-1.922
		c-2.833,0-4.017,1.416-4.017,3.038c0,1.715,0.771,2.686,4.903,4.161c4.579,1.652,5.997,3.187,5.997,6.253
		C166.797,30.614,164.254,33.119,159.939,33.119"/>
	<polygon points="184.508,32.793 184.508,23.062 174.23,23.062 174.23,32.793 171.927,32.793 171.927,12.146 174.23,12.146 
		174.23,20.966 184.508,20.966 184.508,12.146 186.811,12.146 186.811,32.793 	"/>
	<rect x="192.737" y="12.147" width="2.303" height="20.647"/>
	<polygon points="203.277,14.24 203.277,21.084 208.946,21.084 208.946,23.181 203.277,23.181 203.277,32.793 200.972,32.793 
		200.972,12.146 213.113,12.146 213.113,14.24 	"/>
	<polygon points="225.633,14.24 225.633,32.793 223.33,32.793 223.33,14.24 217.248,14.24 217.248,12.146 231.718,12.146 
		231.718,14.24 	"/>
	<path fill="#BC1C29" d="M27.908,20.44l-6.912,2.511c0.09,1.108,0.279,2.2,0.547,3.272l6.562-2.393
		C27.894,22.727,27.819,21.585,27.908,20.44"/>
	<path fill="#BC1C29" d="M58.439,12.811c-0.481-0.991-1.037-1.953-1.685-2.859l-6.909,2.512c0.805,0.823,1.48,1.744,2.031,2.732
		L58.439,12.811z"/>
	<path fill="#E22434" d="M43.239,10.858c1.436,0.67,2.684,1.581,3.731,2.653l6.91-2.514c-1.917-2.681-4.521-4.921-7.712-6.409
		c-9.875-4.6-21.66-0.318-26.259,9.545c-1.494,3.188-2.048,6.581-1.79,9.862l6.911-2.512c0.112-1.493,0.48-2.991,1.152-4.429
		C29.171,10.65,36.827,7.868,43.239,10.858"/>
	<path fill="#E22434" d="M21.974,26.068l-6.564,2.386c0.604,2.388,1.651,4.661,3.088,6.678l6.896-2.503
		C23.623,30.812,22.443,28.52,21.974,26.068"/>
	<path fill="#E22434" d="M50.607,23.465c-0.111,1.491-0.484,2.993-1.158,4.43c-2.991,6.411-10.645,9.193-17.063,6.202
		c-1.436-0.673-2.692-1.58-3.739-2.653l-6.892,2.507c1.91,2.681,4.514,4.92,7.706,6.411c9.875,4.599,21.657,0.316,26.264-9.548
		c1.49-3.188,2.04-6.577,1.778-9.858L50.607,23.465z"/>
	<path fill="#E22434" d="M52.307,15.038l-6.564,2.392c1.221,2.179,1.794,4.694,1.609,7.22l6.894-2.507
		C54.046,19.67,53.386,17.259,52.307,15.038"/>
	<path fill="#97101B" d="M27.88,21.827c-0.016-0.46-0.01-0.924,0.028-1.387l-6.912,2.511c0.033,0.442,0.09,0.879,0.156,1.317
		L27.88,21.827z"/>
	<path fill="#97101B" d="M57.442,10.993c-0.219-0.35-0.445-0.702-0.686-1.042l-6.907,2.512c0.304,0.311,0.585,0.642,0.852,0.977
		L57.442,10.993z"/>
	<path fill="#BC1C29" d="M21.757,33.951c0.53,0.745,1.118,1.461,1.756,2.131l7.503-2.731c-0.878-0.553-1.67-1.189-2.37-1.902
		L21.757,33.951z M57.504,20.958l-6.897,2.506c-0.073,0.993-0.266,1.986-0.583,2.96l7.5-2.731
		C57.582,22.775,57.572,21.863,57.504,20.958"/>
	<path d="M237.302,13.864c-0.072,0.174-0.17,0.323-0.297,0.449c-0.13,0.124-0.278,0.219-0.45,0.288
		c-0.173,0.068-0.359,0.101-0.567,0.101c-0.199,0-0.385-0.034-0.559-0.101c-0.173-0.07-0.322-0.165-0.455-0.288
		c-0.123-0.125-0.225-0.274-0.293-0.449c-0.076-0.173-0.112-0.366-0.112-0.579c0-0.212,0.036-0.405,0.112-0.577
		c0.068-0.174,0.17-0.324,0.293-0.449c0.13-0.126,0.279-0.219,0.455-0.289c0.171-0.067,0.361-0.102,0.559-0.102
		c0.208,0,0.395,0.035,0.567,0.102c0.169,0.07,0.317,0.165,0.45,0.289c0.127,0.125,0.225,0.274,0.297,0.449
		c0.072,0.172,0.107,0.366,0.107,0.577C237.41,13.498,237.375,13.691,237.302,13.864 M237.124,12.784
		c-0.064-0.153-0.149-0.282-0.26-0.388c-0.107-0.111-0.238-0.196-0.389-0.256c-0.148-0.059-0.311-0.092-0.486-0.092
		c-0.169,0-0.329,0.033-0.481,0.092c-0.147,0.06-0.276,0.146-0.385,0.256c-0.111,0.106-0.199,0.236-0.262,0.388
		c-0.062,0.154-0.095,0.317-0.095,0.502c0,0.182,0.032,0.352,0.095,0.503c0.062,0.151,0.15,0.282,0.262,0.391
		c0.109,0.108,0.239,0.19,0.385,0.25c0.153,0.063,0.311,0.092,0.481,0.092c0.174,0,0.338-0.029,0.486-0.092
		c0.15-0.059,0.282-0.144,0.389-0.25c0.11-0.109,0.196-0.239,0.26-0.391c0.064-0.152,0.094-0.32,0.094-0.503
		C237.22,13.101,237.188,12.933,237.124,12.784 M236.522,13.219c-0.063,0.075-0.151,0.127-0.262,0.153l0.351,0.67h-0.244
		l-0.337-0.655h-0.339v0.655h-0.206v-1.565h0.636c0.145,0,0.261,0.038,0.356,0.109c0.099,0.075,0.147,0.188,0.147,0.341
		C236.621,13.044,236.587,13.142,236.522,13.219 M236.333,12.729c-0.051-0.044-0.127-0.068-0.227-0.068h-0.418v0.531h0.393
		c0.222,0,0.331-0.09,0.331-0.266C236.415,12.839,236.385,12.77,236.333,12.729"/>
</g>
</svg>
